<svg width="50" height="50" viewBox="0 0 50 50" fill="none" xmlns="http://www.w3.org/2000/svg">
<g clip-path="url(#clip0_41_94)">
<path d="M16.6666 23.6104L37.9646 9.41246C38.1214 9.30807 38.3037 9.24819 38.4919 9.23919C38.6801 9.23018 38.8672 9.2724 39.0333 9.36133C39.1994 9.45027 39.3383 9.58259 39.4352 9.74421C39.532 9.90583 39.5832 10.0907 39.5833 10.2791L39.5833 39.7208C39.5832 39.9092 39.532 40.0941 39.4352 40.2557C39.3383 40.4173 39.1994 40.5497 39.0333 40.6386C38.8672 40.7275 38.6801 40.7697 38.4919 40.7607C38.3037 40.7517 38.1214 40.6918 37.9646 40.5875L16.6666 26.3895L16.6666 39.5833C16.6666 40.1358 16.4472 40.6657 16.0565 41.0564C15.6658 41.4471 15.1358 41.6666 14.5833 41.6666C14.0308 41.6666 13.5009 41.4471 13.1102 41.0564C12.7195 40.6657 12.5 40.1358 12.5 39.5833L12.5 10.4166C12.5 9.86409 12.7195 9.33418 13.1102 8.94348C13.5009 8.55278 14.0308 8.33329 14.5833 8.33329C15.1358 8.33329 15.6658 8.55278 16.0565 8.94348C16.4472 9.33418 16.6666 9.86409 16.6666 10.4166V23.6104ZM35.4166 33.8812V16.1187L22.0958 25L35.4166 33.8812Z" fill="white"/>
</g>
<defs>
<clipPath id="clip0_41_94">
<rect width="50" height="50" fill="white" transform="translate(50 50) rotate(-180)"/>
</clipPath>
</defs>
</svg>
