<svg width="50" height="50" viewBox="0 0 50 50" fill="none" xmlns="http://www.w3.org/2000/svg">
<g clip-path="url(#clip0_41_91)">
<path d="M33.3334 26.3896L12.0354 40.5875C11.8786 40.6919 11.6963 40.7518 11.5081 40.7608C11.3199 40.7698 11.1328 40.7276 10.9667 40.6387C10.8006 40.5497 10.6617 40.4174 10.5648 40.2558C10.468 40.0942 10.4168 39.9093 10.4167 39.7209V10.2792C10.4168 10.0908 10.468 9.90592 10.5648 9.7443C10.6617 9.58268 10.8006 9.45035 10.9667 9.36141C11.1328 9.27248 11.3199 9.23027 11.5081 9.23927C11.6963 9.24827 11.8786 9.30816 12.0354 9.41254L33.3334 23.6105V10.4167C33.3334 9.86417 33.5528 9.33427 33.9435 8.94357C34.3342 8.55287 34.8642 8.33337 35.4167 8.33337C35.9692 8.33337 36.4991 8.55287 36.8898 8.94357C37.2805 9.33427 37.5 9.86417 37.5 10.4167V39.5834C37.5 40.1359 37.2805 40.6658 36.8898 41.0565C36.4991 41.4472 35.9692 41.6667 35.4167 41.6667C34.8642 41.6667 34.3342 41.4472 33.9435 41.0565C33.5528 40.6658 33.3334 40.1359 33.3334 39.5834V26.3896ZM14.5834 16.1188V33.8813L27.9042 25L14.5834 16.1188Z" fill="white"/>
</g>
<defs>
<clipPath id="clip0_41_91">
<rect width="50" height="50" fill="white"/>
</clipPath>
</defs>
</svg>
