<svg width="41" height="41" viewBox="0 0 41 41" fill="none" xmlns="http://www.w3.org/2000/svg">
<g clip-path="url(#clip0_8_14)">
<path d="M20.5 3.41666C29.93 3.41666 37.5833 11.07 37.5833 20.5C37.5833 29.93 29.93 37.5833 20.5 37.5833C11.07 37.5833 3.41666 29.93 3.41666 20.5C3.41666 11.07 11.07 3.41666 20.5 3.41666ZM20.5 27.3333C24.2805 27.3333 27.3333 24.2805 27.3333 20.5C27.3333 16.7194 24.2805 13.6667 20.5 13.6667C16.7194 13.6667 13.6667 16.7194 13.6667 20.5C13.6667 24.2805 16.7194 27.3333 20.5 27.3333ZM20.5 18.7917C21.4396 18.7917 22.2083 19.5604 22.2083 20.5C22.2083 21.4396 21.4396 22.2083 20.5 22.2083C19.5604 22.2083 18.7917 21.4396 18.7917 20.5C18.7917 19.5604 19.5604 18.7917 20.5 18.7917Z" fill="white"/>
</g>
<defs>
<clipPath id="clip0_8_14">
<rect width="41" height="41" fill="white"/>
</clipPath>
</defs>
</svg>
