<svg width="75" height="75" viewBox="0 0 75 75" fill="none" xmlns="http://www.w3.org/2000/svg">
<g clip-path="url(#clip0_41_110)">
<path d="M37.25 66.5C19.9906 66.5 6 52.5094 6 35.25C6 17.9906 19.9906 4 37.25 4C54.5094 4 68.5 17.9906 68.5 35.25C68.5 52.5094 54.5094 66.5 37.25 66.5ZM37.25 60.25C43.8804 60.25 50.2393 57.6161 54.9277 52.9277C59.6161 48.2393 62.25 41.8804 62.25 35.25C62.25 28.6196 59.6161 22.2607 54.9277 17.5723C50.2393 12.8839 43.8804 10.25 37.25 10.25C30.6196 10.25 24.2607 12.8839 19.5723 17.5723C14.8839 22.2607 12.25 28.6196 12.25 35.25C12.25 41.8804 14.8839 48.2393 19.5723 52.9277C24.2607 57.6161 30.6196 60.25 37.25 60.25ZM27.875 25.875H34.125V44.625H27.875V25.875ZM40.375 25.875H46.625V44.625H40.375V25.875Z" fill="white"/>
</g>
<defs>
<clipPath id="clip0_41_110">
<rect width="75" height="75" fill="white"/>
</clipPath>
</defs>
</svg>
