<svg width="75" height="75" viewBox="0 0 75 75" fill="none" xmlns="http://www.w3.org/2000/svg">
<g clip-path="url(#clip0_41_85)">
<path d="M38.25 68.5C20.9906 68.5 7 54.5094 7 37.25C7 19.9906 20.9906 6 38.25 6C55.5094 6 69.5 19.9906 69.5 37.25C69.5 54.5094 55.5094 68.5 38.25 68.5ZM38.25 62.25C44.8804 62.25 51.2393 59.6161 55.9277 54.9277C60.6161 50.2393 63.25 43.8804 63.25 37.25C63.25 30.6196 60.6161 24.2607 55.9277 19.5723C51.2393 14.8839 44.8804 12.25 38.25 12.25C31.6196 12.25 25.2607 14.8839 20.5723 19.5723C15.8839 24.2607 13.25 30.6196 13.25 37.25C13.25 43.8804 15.8839 50.2393 20.5723 54.9277C25.2607 59.6161 31.6196 62.25 38.25 62.25ZM33.9437 26.0469L49.1906 36.2094C49.3621 36.3235 49.5027 36.4782 49.5999 36.6597C49.6972 36.8413 49.7481 37.044 49.7481 37.25C49.7481 37.456 49.6972 37.6587 49.5999 37.8403C49.5027 38.0218 49.3621 38.1765 49.1906 38.2906L33.9406 48.4531C33.7526 48.5778 33.5343 48.6492 33.309 48.6598C33.0836 48.6705 32.8596 48.62 32.6607 48.5136C32.4617 48.4072 32.2952 48.249 32.1789 48.0557C32.0626 47.8624 32.0008 47.6412 32 47.4156V27.0844C32.0004 26.8583 32.0621 26.6365 32.1786 26.4428C32.2951 26.249 32.4619 26.0904 32.6614 25.9839C32.8609 25.8775 33.0854 25.8271 33.3113 25.8382C33.5371 25.8493 33.7557 25.9214 33.9437 26.0469Z" fill="white"/>
</g>
<defs>
<clipPath id="clip0_41_85">
<rect width="75" height="75" fill="white"/>
</clipPath>
</defs>
</svg>
