<svg width="40" height="40" viewBox="0 0 40 40" fill="none" xmlns="http://www.w3.org/2000/svg">
<g clip-path="url(#clip0_8_11)">
<path d="M30.0517 27.695L37.19 34.8317L34.8317 37.19L27.695 30.0517C25.0396 32.1804 21.7367 33.3382 18.3333 33.3333C10.0533 33.3333 3.33334 26.6133 3.33334 18.3333C3.33334 10.0533 10.0533 3.33334 18.3333 3.33334C26.6133 3.33334 33.3333 10.0533 33.3333 18.3333C33.3382 21.7367 32.1804 25.0396 30.0517 27.695ZM26.7083 26.4583C28.8235 24.2832 30.0048 21.3674 30 18.3333C30 11.8867 24.7783 6.66668 18.3333 6.66668C11.8867 6.66668 6.66668 11.8867 6.66668 18.3333C6.66668 24.7783 11.8867 30 18.3333 30C21.3674 30.0048 24.2832 28.8235 26.4583 26.7083L26.7083 26.4583Z" fill="white"/>
</g>
<defs>
<clipPath id="clip0_8_11">
<rect width="40" height="40" fill="white"/>
</clipPath>
</defs>
</svg>
