<svg width="42" height="42" viewBox="0 0 42 42" fill="none" xmlns="http://www.w3.org/2000/svg">
<g clip-path="url(#clip0_8_48)">
<path d="M5.84498 29.75C5.10521 28.4707 4.53015 27.103 4.13348 25.6795C4.99677 25.2404 5.72177 24.5711 6.22829 23.7456C6.7348 22.92 7.00307 21.9705 7.00344 21.0019C7.0038 20.0334 6.73623 19.0837 6.23034 18.2577C5.72444 17.4318 4.99994 16.762 4.13698 16.3222C4.92805 13.4618 6.43426 10.8499 8.51373 8.73249C9.3259 9.26051 10.2683 9.55353 11.2367 9.57911C12.2051 9.60469 13.1617 9.36185 14.0006 8.87745C14.8395 8.39305 15.528 7.68599 15.99 6.83452C16.4519 5.98304 16.6693 5.02035 16.618 4.053C19.4917 3.31033 22.5071 3.31154 25.3802 4.0565C25.3294 5.02383 25.5472 5.98638 26.0095 6.83761C26.4718 7.68884 27.1606 8.39558 27.9997 8.8796C28.8388 9.36363 29.7954 9.60607 30.7637 9.58011C31.732 9.55415 32.6743 9.26079 33.4862 8.73249C34.4995 9.76499 35.399 10.9392 36.155 12.25C36.9127 13.5607 37.4797 14.9275 37.8665 16.3205C37.0032 16.7596 36.2782 17.4289 35.7717 18.2544C35.2652 19.08 34.9969 20.0295 34.9965 20.998C34.9962 21.9666 35.2637 22.9163 35.7696 23.7422C36.2755 24.5682 37 25.238 37.863 25.6777C37.0719 28.5381 35.5657 31.1501 33.4862 33.2675C32.6741 32.7395 31.7317 32.4465 30.7633 32.4209C29.7949 32.3953 28.8383 32.6381 27.9994 33.1225C27.1605 33.6069 26.472 34.314 26.01 35.1655C25.5481 36.0169 25.3307 36.9796 25.382 37.947C22.5083 38.6897 19.4928 38.6884 16.6197 37.9435C16.6706 36.9762 16.4528 36.0136 15.9905 35.1624C15.5282 34.3111 14.8394 33.6044 14.0003 33.1204C13.1612 32.6364 12.2046 32.3939 11.2363 32.4199C10.2679 32.4458 9.32567 32.7392 8.51373 33.2675C7.47947 32.2121 6.58277 31.0303 5.84498 29.75ZM15.75 30.093C17.6148 31.1686 19.017 32.8948 19.6875 34.9405C20.5607 35.0227 21.4375 35.0245 22.3107 34.9422C22.9817 32.8962 24.3845 31.17 26.25 30.0947C28.1141 29.0162 30.3109 28.6641 32.4187 29.106C32.9262 28.392 33.3637 27.6307 33.7277 26.8345C32.2917 25.2305 31.4984 23.1529 31.5 21C31.5 18.795 32.3225 16.7352 33.7277 15.1655C33.3612 14.3695 32.9218 13.6091 32.4152 12.894C30.3087 13.3355 28.1134 12.9841 26.25 11.907C24.3851 10.8314 22.983 9.10522 22.3125 7.05949C21.4392 6.97725 20.5625 6.9755 19.6892 7.05775C19.0183 9.10375 17.6155 10.83 15.75 11.9052C13.8859 12.9838 11.6891 13.3359 9.58123 12.894C9.07472 13.6085 8.63646 14.369 8.27223 15.1655C9.70823 16.7695 10.5015 18.8471 10.5 21C10.5 23.205 9.67748 25.2647 8.27223 26.8345C8.63881 27.6305 9.07818 28.3909 9.58473 29.106C11.6912 28.6645 13.8866 29.0159 15.75 30.093ZM21 26.25C19.6076 26.25 18.2722 25.6969 17.2877 24.7123C16.3031 23.7277 15.75 22.3924 15.75 21C15.75 19.6076 16.3031 18.2723 17.2877 17.2877C18.2722 16.3031 19.6076 15.75 21 15.75C22.3924 15.75 23.7277 16.3031 24.7123 17.2877C25.6969 18.2723 26.25 19.6076 26.25 21C26.25 22.3924 25.6969 23.7277 24.7123 24.7123C23.7277 25.6969 22.3924 26.25 21 26.25ZM21 22.75C21.4641 22.75 21.9092 22.5656 22.2374 22.2374C22.5656 21.9092 22.75 21.4641 22.75 21C22.75 20.5359 22.5656 20.0907 22.2374 19.7626C21.9092 19.4344 21.4641 19.25 21 19.25C20.5359 19.25 20.0907 19.4344 19.7625 19.7626C19.4344 20.0907 19.25 20.5359 19.25 21C19.25 21.4641 19.4344 21.9092 19.7625 22.2374C20.0907 22.5656 20.5359 22.75 21 22.75Z" fill="white"/>
</g>
<defs>
<clipPath id="clip0_8_48">
<rect width="42" height="42" fill="white"/>
</clipPath>
</defs>
</svg>
